<svg width="92" height="87" viewBox="0 0 92 87" fill="none" xmlns="http://www.w3.org/2000/svg">
<path d="M46.4484 2.29782L58.8842 27.4955C59.394 28.5285 60.3795 29.2445 61.5195 29.4102L89.3268 33.4508C89.7369 33.5104 89.9007 34.0144 89.6039 34.3037L69.4823 53.9174C68.6574 54.7214 68.281 55.8799 68.4757 57.0153L73.2258 84.7103C73.2959 85.1188 72.8671 85.4302 72.5003 85.2374L47.6287 72.1616C46.6091 71.6255 45.3909 71.6255 44.3713 72.1616L19.4997 85.2374C19.1329 85.4302 18.7041 85.1187 18.7742 84.7103L23.5243 57.0153C23.719 55.8799 23.3426 54.7214 22.5177 53.9174L2.39609 34.3037C2.09933 34.0144 2.26309 33.5104 2.6732 33.4508L30.4805 29.4102C31.6205 29.2445 32.606 28.5285 33.1158 27.4955L45.5516 2.29782C45.735 1.9262 46.265 1.9262 46.4484 2.29782Z" fill="#EBB000" stroke="white" stroke-width="3" stroke-linejoin="round"/>
</svg>
