<svg width="92" height="88" viewBox="0 0 92 88" fill="none" xmlns="http://www.w3.org/2000/svg">
<path d="M44.2441 1.21957C45.0021 -0.170308 46.9979 -0.17031 47.7559 1.21957L61.1217 25.7276C61.4094 26.255 61.9189 26.6252 62.5095 26.7358L89.9482 31.8741C91.5043 32.1655 92.121 34.0636 91.0334 35.214L71.8552 55.4991C71.4425 55.9356 71.2479 56.5346 71.3252 57.1304L74.9174 84.8141C75.1211 86.3841 73.5065 87.5571 72.0763 86.8782L46.8577 74.9071C46.3149 74.6495 45.6851 74.6495 45.1423 74.9071L19.9237 86.8782C18.4935 87.5571 16.8789 86.3841 17.0826 84.8141L20.6748 57.1304C20.7521 56.5346 20.5575 55.9356 20.1448 55.4991L0.966582 35.214C-0.12104 34.0636 0.495667 32.1655 2.05176 31.8741L29.4905 26.7358C30.0811 26.6252 30.5906 26.255 30.8783 25.7276L44.2441 1.21957Z" fill="#BEBEBE"/>
</svg>
